<?xml version="1.0" encoding="utf-8"?>
<!-- Generator: Adobe Illustrator 19.2.0, SVG Export Plug-In . SVG Version: 6.00 Build 0)  -->
<svg version="1.1" id="レイヤー_1" xmlns="http://www.w3.org/2000/svg" xmlns:xlink="http://www.w3.org/1999/xlink" x="0px"
	 y="0px" viewBox="0 0 140.4 28.9" style="enable-background:new 0 0 140.4 28.9;" xml:space="preserve">
<style type="text/css">
	.st0{fill:#F4F4ED;}
</style>
<g>
	<g>
		<g>
			<g>
				<path class="st0" d="M0,6.9h2.5v3.4c0.3-0.5,0.7-1,1.2-1.4C4.1,8.4,4.5,8,5.1,7.7c0.5-0.3,1.1-0.6,1.7-0.8
					c0.6-0.2,1.3-0.3,2.1-0.3c1,0,2,0.2,2.9,0.6c1,0.4,1.8,1,2.6,1.7c0.8,0.7,1.4,1.7,1.8,2.7c0.5,1.1,0.7,2.3,0.7,3.7v0.1
					c0,1.4-0.2,2.6-0.7,3.7c-0.5,1.1-1.1,2-1.8,2.7s-1.6,1.3-2.6,1.7c-1,0.4-2,0.6-3,0.6c-0.8,0-1.5-0.1-2.1-0.3
					C6.1,23.5,5.5,23.3,5,23c-0.5-0.3-1-0.7-1.4-1.1c-0.4-0.4-0.8-0.9-1.1-1.4v8.4H0V6.9z M8.5,21.8c0.8,0,1.6-0.1,2.3-0.4
					c0.7-0.3,1.4-0.7,1.9-1.3c0.5-0.6,1-1.2,1.3-2c0.3-0.8,0.5-1.7,0.5-2.7v-0.1c0-1-0.2-1.9-0.5-2.7c-0.3-0.8-0.7-1.5-1.3-2
					c-0.5-0.6-1.2-1-1.9-1.3C10,8.9,9.3,8.8,8.5,8.8c-0.8,0-1.5,0.2-2.3,0.5C5.5,9.6,4.8,10,4.3,10.6c-0.6,0.6-1,1.3-1.4,2
					c-0.3,0.8-0.5,1.7-0.5,2.6v0.1c0,1,0.2,1.9,0.5,2.7c0.3,0.8,0.8,1.5,1.4,2c0.6,0.6,1.2,1,1.9,1.3C6.9,21.6,7.7,21.8,8.5,21.8z"
					/>
				<path class="st0" d="M21.2,0.5h2.9v2.8h-2.9V0.5z M21.4,6.9h2.5v16.8h-2.5V6.9z"/>
				<path class="st0" d="M36.9,24.1c-1.2,0-2.4-0.2-3.4-0.7c-1-0.5-2-1.1-2.7-1.9c-0.8-0.8-1.4-1.7-1.8-2.8
					c-0.4-1.1-0.6-2.2-0.6-3.3v-0.1c0-1.2,0.2-2.3,0.6-3.4c0.4-1.1,1-2,1.8-2.8c0.8-0.8,1.7-1.4,2.7-1.9c1-0.5,2.2-0.7,3.4-0.7
					c0.8,0,1.5,0.1,2.2,0.2c0.6,0.2,1.2,0.4,1.8,0.6c0.5,0.3,1,0.6,1.5,1c0.5,0.4,0.9,0.8,1.3,1.2l-1.7,1.8
					c-0.7-0.7-1.4-1.3-2.2-1.8C38.9,9,38,8.8,36.8,8.8c-0.8,0-1.6,0.2-2.4,0.5c-0.7,0.3-1.4,0.8-1.9,1.4c-0.5,0.6-1,1.3-1.3,2.1
					c-0.3,0.8-0.5,1.6-0.5,2.5v0.1c0,0.9,0.2,1.8,0.5,2.5c0.3,0.8,0.7,1.5,1.3,2.1c0.6,0.6,1.2,1.1,1.9,1.4c0.7,0.3,1.6,0.5,2.4,0.5
					c1.1,0,2-0.2,2.9-0.7c0.8-0.5,1.6-1.1,2.3-1.8l1.6,1.5c-0.8,1-1.8,1.7-2.9,2.3C39.8,23.8,38.4,24.1,36.9,24.1z"/>
				<path class="st0" d="M47.5,0H50v16.3l9-9.4h3.1l-7,7.2l7.3,9.6h-3l-6-7.8L50,19.3v4.4h-2.5V0z"/>
				<path class="st0" d="M72,24c-1,0-1.9-0.2-2.7-0.5c-0.8-0.3-1.5-0.8-2-1.4c-0.6-0.6-1-1.3-1.3-2.1c-0.3-0.8-0.4-1.7-0.4-2.7V6.9
					h2.5v9.8c0,1.6,0.4,2.8,1.2,3.7c0.8,0.9,1.9,1.4,3.4,1.4c0.7,0,1.4-0.1,2-0.4c0.6-0.2,1.1-0.6,1.6-1.1c0.4-0.5,0.8-1,1.1-1.7
					c0.3-0.6,0.4-1.4,0.4-2.1V6.9h2.5v16.8h-2.5v-2.9c-0.6,0.9-1.3,1.7-2.2,2.3C74.6,23.7,73.5,24,72,24z"/>
				<path class="st0" d="M84.3,6.9h2.5v3.4c0.3-0.5,0.7-1,1.2-1.4c0.4-0.5,0.9-0.8,1.4-1.2c0.5-0.3,1.1-0.6,1.7-0.8
					c0.6-0.2,1.3-0.3,2.1-0.3c1,0,2,0.2,2.9,0.6c1,0.4,1.8,1,2.6,1.7c0.8,0.7,1.4,1.7,1.8,2.7c0.5,1.1,0.7,2.3,0.7,3.7v0.1
					c0,1.4-0.2,2.6-0.7,3.7c-0.5,1.1-1.1,2-1.8,2.7c-0.7,0.7-1.6,1.3-2.6,1.7c-1,0.4-2,0.6-3,0.6c-0.8,0-1.5-0.1-2.1-0.3
					c-0.6-0.2-1.2-0.5-1.8-0.8c-0.5-0.3-1-0.7-1.4-1.1c-0.4-0.4-0.8-0.9-1.1-1.4v8.4h-2.5V6.9z M92.7,21.8c0.8,0,1.6-0.1,2.3-0.4
					c0.7-0.3,1.4-0.7,1.9-1.3c0.5-0.6,1-1.2,1.3-2c0.3-0.8,0.5-1.7,0.5-2.7v-0.1c0-1-0.2-1.9-0.5-2.7c-0.3-0.8-0.7-1.5-1.3-2
					c-0.5-0.6-1.2-1-1.9-1.3c-0.7-0.3-1.5-0.5-2.3-0.5c-0.8,0-1.5,0.2-2.3,0.5c-0.7,0.3-1.4,0.8-1.9,1.3c-0.6,0.6-1,1.3-1.4,2
					c-0.3,0.8-0.5,1.7-0.5,2.6v0.1c0,1,0.2,1.9,0.5,2.7c0.3,0.8,0.8,1.5,1.4,2c0.6,0.6,1.2,1,1.9,1.3C91.2,21.6,92,21.8,92.7,21.8z"
					/>
				<path class="st0" d="M113.3,24.1c-1.3,0-2.4-0.2-3.5-0.7c-1.1-0.5-2-1.1-2.8-1.9c-0.8-0.8-1.4-1.7-1.8-2.8
					c-0.4-1-0.6-2.2-0.6-3.4v-0.1c0-1.2,0.2-2.3,0.6-3.4c0.4-1.1,1-2,1.8-2.8c0.8-0.8,1.7-1.4,2.8-1.9c1.1-0.5,2.2-0.7,3.5-0.7
					c1.3,0,2.4,0.2,3.5,0.7c1.1,0.5,2,1.1,2.8,1.9c0.8,0.8,1.4,1.7,1.8,2.8c0.4,1,0.6,2.2,0.6,3.4v0.1c0,1.2-0.2,2.3-0.7,3.4
					c-0.4,1.1-1.1,2-1.8,2.8c-0.8,0.8-1.7,1.4-2.8,1.9C115.7,23.8,114.6,24.1,113.3,24.1z M113.4,21.8c0.9,0,1.7-0.2,2.5-0.5
					c0.8-0.3,1.4-0.8,1.9-1.4c0.5-0.6,1-1.3,1.3-2c0.3-0.8,0.5-1.6,0.5-2.5v-0.1c0-0.9-0.2-1.8-0.5-2.5c-0.3-0.8-0.8-1.5-1.3-2.1
					c-0.6-0.6-1.2-1.1-2-1.4c-0.8-0.3-1.6-0.5-2.5-0.5c-0.9,0-1.7,0.2-2.5,0.5c-0.8,0.3-1.4,0.8-1.9,1.4c-0.5,0.6-0.9,1.3-1.2,2.1
					c-0.3,0.8-0.5,1.6-0.5,2.5v0.1c0,0.9,0.2,1.8,0.5,2.5c0.3,0.8,0.7,1.5,1.3,2.1c0.6,0.6,1.2,1,2,1.4
					C111.7,21.7,112.5,21.8,113.4,21.8z"/>
				<path class="st0" d="M125.8,6.9h2.5v2.9c0.6-0.9,1.3-1.7,2.2-2.3c0.9-0.6,2.1-1,3.5-1c1,0,1.9,0.2,2.7,0.5
					c0.8,0.3,1.5,0.8,2,1.4c0.6,0.6,1,1.3,1.3,2.1c0.3,0.8,0.4,1.7,0.4,2.7v10.4h-2.5v-9.8c0-1.6-0.4-2.8-1.2-3.7
					c-0.8-0.9-1.9-1.4-3.4-1.4c-0.7,0-1.4,0.1-2,0.4c-0.6,0.2-1.2,0.6-1.6,1.1c-0.5,0.5-0.8,1-1.1,1.7c-0.2,0.6-0.4,1.4-0.4,2.1v9.6
					h-2.5V6.9z"/>
			</g>
		</g>
	</g>
	<g>
		<g>
			<ellipse class="st0" cx="13.6" cy="16.6" rx="0.5" ry="0.7"/>
			<ellipse class="st0" cx="3.4" cy="16.6" rx="0.5" ry="0.7"/>
			<path class="st0" d="M8.5,18.1c-0.4,0-1.1-0.3-1.1-1v-1.5c0-0.1,0.1-0.2,0.2-0.2c0.1,0,0.2,0.1,0.2,0.2V17c0,0.5,0.5,0.7,0.8,0.7
				c0.2,0,0.8-0.2,0.8-0.7v-1.5c0-0.1,0.1-0.2,0.2-0.2c0.1,0,0.2,0.1,0.2,0.2V17C9.6,17.7,8.9,18.1,8.5,18.1z"/>
			<path class="st0" d="M8.5,12.8c-3.6,0-6-0.6-6-0.6l6-10l6,10C14.5,12.2,12.1,12.8,8.5,12.8z"/>
		</g>
	</g>
</g>
</svg>
